<?xml version="1.0" encoding="utf-8"?>
<!-- Generator: Adobe Illustrator 22.1.0, SVG Export Plug-In . SVG Version: 6.00 Build 0)  -->
<svg version="1.1" id="Layer_1" xmlns="http://www.w3.org/2000/svg" xmlns:xlink="http://www.w3.org/1999/xlink" x="0px" y="0px"
	 viewBox="0 0 138.7 146.9" style="enable-background:new 0 0 138.7 146.9;" xml:space="preserve">
<style type="text/css">
	.st0{opacity:0.6;}
	.st1{fill:#FFFFFF;}
	.st2{fill:#FFFFFF;stroke:#939598;stroke-width:10;stroke-miterlimit:10;}
</style>
<title>Asset 3</title>
<g id="Layer_2_1_" class="st0">
	<g id="Layer_1-2">
		<g>
			<path class="st1" d="M38.9,38.9H0V0h38.9V38.9z M10,28.9h18.9V10H10V28.9z"/>
		</g>
		<g>
			<path class="st2" d="M87.4,19.5L87.4,19.5z"/>
		</g>
		<g>
			<path class="st2" d="M19.5,55.4L19.5,55.4z"/>
		</g>
		<g>
			
				<rect x="64.3" y="36.5" transform="matrix(0.7322 -0.681 0.681 0.7322 -31.4545 66.8867)" class="st1" width="10" height="73.8"/>
		</g>
		<g>
			
				<rect x="32.4" y="68.4" transform="matrix(0.6811 -0.7322 0.7322 0.6811 -31.6649 74.1941)" class="st1" width="73.8" height="10"/>
		</g>
		<g>
			<path class="st1" d="M38.9,146.9H0v-38.9h38.9V146.9z M10,136.9h18.9v-18.9H10V136.9z"/>
		</g>
		<g>
			<path class="st1" d="M138.7,38.9H99.7V0h38.9V38.9z M109.7,28.9h18.9V10h-18.9V28.9z"/>
		</g>
		<g>
			<path class="st1" d="M138.7,146.9H99.7v-38.9h38.9V146.9z M109.7,136.9h18.9v-18.9h-18.9V136.9z"/>
		</g>
		<g>
			<path class="st2" d="M119.2,55.4L119.2,55.4z"/>
		</g>
		<g>
			<path class="st2" d="M87.4,127.4L87.4,127.4z"/>
		</g>
	</g>
</g>
</svg>
