<svg xmlns="http://www.w3.org/2000/svg" width="48" height="38"><g fill="#112E51"><path d="M18.612 25.497L19.345 32h9.296l.733-6.503 4.525-3.37L37 17.585v-7.507L33.892 4.72 27.032 1h-6.078l-6.846 3.72L11 10.111v7.474l3.101 4.57 4.511 3.342zm-4.887-14.705l2.368-4.077 5.566-3.02h4.669l5.565 3.02 2.369 4.077v5.97l-2.376 3.519-5.1 3.76-.595 5.263h-4.395l-.596-5.263-5.1-3.76-2.375-3.518v-5.971zM19 35h10v3H19z"/><path d="M21.737 16.075l1.706 1.835h2.114l1.706-1.835L29.052 18 31 15.896 28.32 13h-2.114L24.5 14.836 22.794 13H20.68L18 15.896 19.948 18zM3.293 24.702L8.78 20.63l1.645 2.171-5.485 4.073zM37.577 22.8l1.646-2.171 5.486 4.072-1.646 2.17zM3.291 2.442L4.937.272l5.486 4.07-1.646 2.172zm34.289 1.9L43.064.27l1.646 2.172-5.486 4.072zM0 12h7v3H0zm41 0h7v3h-7z"/></g></svg>