<svg xmlns="http://www.w3.org/2000/svg" width="35" height="35"><path fill="#112E51" d="M30.305 4.252L22.173 0h-9.339L4.663 4.252 0 13.08v8.646l4.663 8.815L12.82 35h9.352l8.151-4.46L35 21.727V13.08l-4.695-8.828zm-1.946 1.944l4.002 7.545v2.463h-6.233l-1.601-7.83-3.457-5.781h.454l6.835 3.603zm-11.102 26.01l-4.066-7.388-1.362-6.022h11.64l-1.368 6.022-4.066 7.388h-.778zm-5.46-16.002l1.4-6.877 4.027-6.734h.818l4.033 6.727 1.395 6.884H11.796zM6.607 6.177l6.862-3.584h.732L10.74 8.368l-1.595 7.836h-6.55V13.72l4.014-7.544zm0 22.465l-4.014-7.564v-2.282h6.608l1.576 6.948 3.612 6.663h-.908l-6.874-3.765zm21.79 0l-6.874 3.765h-.649l3.665-6.663 1.562-6.948h6.291v2.282l-3.995 7.564z"/></svg>