<?xml version="1.0" encoding="utf-8"?>
<!-- Generator: Adobe Illustrator 22.1.0, SVG Export Plug-In . SVG Version: 6.00 Build 0)  -->
<svg version="1.1" id="Layer_1" xmlns="http://www.w3.org/2000/svg" xmlns:xlink="http://www.w3.org/1999/xlink" x="0px" y="0px"
	 viewBox="0 0 150.7 158.7" style="enable-background:new 0 0 150.7 158.7;" xml:space="preserve">
<style type="text/css">
	.st0{opacity:0.6;}
	.st1{fill:#FFFFFF;}
</style>
<title>Asset 6</title>
<g id="Layer_2_1_" class="st0">
	<g id="Layer_1-2">
		<g>
			<path class="st1" d="M92.8,158.7H57.9L43.7,79.3L57.9,0h34.9L107,79.3L92.8,158.7z M66.3,148.7h18.2l12.4-69.3L84.4,10H66.3
				L53.9,79.3L66.3,148.7z"/>
		</g>
		<g>
			<polygon class="st1" points="79.6,71.9 71.1,71.9 66.8,79.3 71.1,86.8 79.6,86.8 83.9,79.3 			"/>
		</g>
		<g>
			<path class="st1" d="M131,138.5l-73.5-33.1L0,49l19.7-28.8l73.5,33.1l57.5,56.5L131,138.5z M63.2,97.1l64.2,28.9l10.3-15
				L87.5,61.6L23.2,32.7L13,47.7L63.2,97.1z"/>
		</g>
		<g>
			<path class="st1" d="M19.7,138.5L0,109.7l57.5-56.5L131,20.1L150.7,49l-57.5,56.5L19.7,138.5z M13,111l10.3,15l64.2-28.9
				l50.2-49.4l-10.3-15L63.2,61.6L13,111z"/>
		</g>
	</g>
</g>
</svg>
