<?xml version="1.0" encoding="utf-8"?>
<!-- Generator: Adobe Illustrator 22.1.0, SVG Export Plug-In . SVG Version: 6.00 Build 0)  -->
<svg version="1.1" id="Layer_1" xmlns="http://www.w3.org/2000/svg" xmlns:xlink="http://www.w3.org/1999/xlink" x="0px" y="0px"
	 viewBox="0 0 512 298.6" style="enable-background:new 0 0 512 298.6;" xml:space="preserve">
<style type="text/css">
	.st0{fill:#FFFFFF;}
</style>
<title>arrow-down</title>
<path class="st0" d="M506.9,30.8L481.2,5.1c-6.1-6.5-16.3-6.9-22.8-0.8c-0.3,0.3-0.5,0.5-0.8,0.8L256,206.8L54.4,5.1
	c-6.1-6.5-16.3-6.9-22.8-0.8c-0.3,0.3-0.5,0.5-0.8,0.8L5.1,30.8c-6.5,6.1-6.9,16.3-0.8,22.8c0.3,0.3,0.5,0.5,0.8,0.8l239.1,239.1
	c6.1,6.5,16.3,6.9,22.8,0.8c0.3-0.3,0.5-0.5,0.8-0.8L506.9,54.4c6.5-6.1,6.9-16.3,0.7-22.9C507.4,31.3,507.1,31,506.9,30.8
	L506.9,30.8L506.9,30.8z"/>
</svg>
