<?xml version="1.0" encoding="utf-8"?>
<!-- Generator: Adobe Illustrator 23.0.6, SVG Export Plug-In . SVG Version: 6.00 Build 0)  -->
<svg version="1.1" id="Layer_1" xmlns="http://www.w3.org/2000/svg" xmlns:xlink="http://www.w3.org/1999/xlink" x="0px" y="0px"
	 viewBox="0 0 1224 792" style="enable-background:new 0 0 1224 792;" xml:space="preserve">
<style type="text/css">
	.st0{fill:#FFFFFF;}
</style>
<path class="st0" d="M316.52,188.03c-1.97-1.97-5.18-1.97-7.15,0l-33.6,33.6l-33.6-33.6c-0.96-0.95-2.22-1.48-3.57-1.48
	c-1.35,0-2.62,0.53-3.57,1.48c-0.96,0.96-1.48,2.22-1.48,3.57c0,1.35,0.53,2.62,1.48,3.57l37.17,37.17
	c0.95,0.95,2.22,1.48,3.57,1.48c1.35,0,2.62-0.53,3.57-1.48l37.17-37.17c0.95-0.96,1.48-2.22,1.48-3.57S317.47,188.99,316.52,188.03
	z"/>
</svg>
