<?xml version="1.0" encoding="utf-8"?>
<!-- Generator: Adobe Illustrator 23.0.6, SVG Export Plug-In . SVG Version: 6.00 Build 0)  -->
<svg version="1.1" id="Isolation_Mode" xmlns="http://www.w3.org/2000/svg" xmlns:xlink="http://www.w3.org/1999/xlink" x="0px"
	 y="0px" viewBox="0 0 792 612" style="enable-background:new 0 0 792 612;" xml:space="preserve">
<style type="text/css">
	.st0{opacity:0.39;fill:#FFFFFF;}
</style>
<path class="st0" d="M509.1,185.05l-6.5,0.01c-0.56,0-1.01-0.47-1.01-1.04l-0.04-32.63c0-0.58,0.45-1.05,1.01-1.05l6.5-0.01
	c0.56,0,1.01,0.47,1.01,1.04l0.04,32.63C510.11,184.58,509.66,185.05,509.1,185.05"/>
<path class="st0" d="M497.23,186.33l-5.85,2.92c-0.5,0.25-1.11,0.03-1.35-0.49l-13.73-29.39c-0.24-0.52-0.03-1.14,0.47-1.4
	l5.85-2.92c0.5-0.25,1.11-0.03,1.35,0.49l13.73,29.39C497.94,185.45,497.73,186.08,497.23,186.33"/>
<path class="st0" d="M487.07,192.8l-4.05,5.25c-0.35,0.45-0.98,0.53-1.42,0.17l-24.71-20.33c-0.44-0.36-0.51-1.02-0.16-1.47
	l4.05-5.25c0.35-0.45,0.99-0.53,1.42-0.17l24.71,20.33C487.35,191.69,487.42,192.35,487.07,192.8"/>
<path class="st0" d="M480.64,203.18l-1.44,6.55c-0.12,0.56-0.67,0.92-1.21,0.79l-30.79-7.25c-0.55-0.13-0.89-0.69-0.76-1.25
	l1.44-6.55c0.12-0.56,0.67-0.92,1.21-0.79l30.79,7.25C480.42,202.06,480.76,202.62,480.64,203.18"/>
<path class="st0" d="M479.19,215.42l1.45,6.55c0.12,0.56-0.22,1.12-0.76,1.25l-30.79,7.27c-0.55,0.13-1.09-0.22-1.21-0.79
	l-1.45-6.55c-0.12-0.56,0.22-1.12,0.76-1.25l30.79-7.26C478.53,214.51,479.07,214.86,479.19,215.42"/>
<path class="st0" d="M520.82,189.46l-5.84-2.92c-0.5-0.25-0.71-0.87-0.47-1.39l6.78-14.46c0.24-0.52,0.85-0.73,1.35-0.48l5.84,2.92
	c0.5,0.25,0.71,0.88,0.47,1.39l-6.78,14.46C521.92,189.49,521.32,189.71,520.82,189.46"/>
<path class="st0" d="M484,227.78l4.05,5.25c0.35,0.45,0.28,1.11-0.16,1.47l-18.44,15.19c-0.44,0.36-1.07,0.29-1.42-0.17l-4.05-5.25
	c-0.35-0.45-0.28-1.11,0.16-1.47l18.44-15.19C483.02,227.26,483.65,227.33,484,227.78"/>
<path class="st0" d="M532.27,222.93l1.45-6.53c0.12-0.56,0.67-0.91,1.21-0.78l15.15,3.6c0.54,0.13,0.88,0.69,0.76,1.25l-1.45,6.53
	c-0.12,0.56-0.67,0.91-1.21,0.78l-15.15-3.6C532.49,224.05,532.15,223.49,532.27,222.93"/>
<path class="st0" d="M533.73,210.73l-1.43-6.53c-0.12-0.56,0.22-1.12,0.76-1.25l15.16-3.55c0.54-0.13,1.08,0.23,1.21,0.79l1.43,6.53
	c0.12,0.56-0.22,1.12-0.76,1.25l-15.16,3.55C534.39,211.64,533.85,211.29,533.73,210.73"/>
<path class="st0" d="M529.92,199.08l-4.03-5.24c-0.35-0.45-0.27-1.11,0.16-1.46l12.17-9.99c0.44-0.36,1.07-0.28,1.42,0.17l4.03,5.24
	c0.35,0.45,0.27,1.11-0.16,1.46l-12.17,9.99C530.9,199.6,530.27,199.53,529.92,199.08"/>
<path class="st0" d="M492.36,236.58l5.85,2.92c0.5,0.25,0.71,0.88,0.47,1.4l-10.24,21.95c-0.24,0.52-0.85,0.74-1.35,0.49l-5.86-2.92
	c-0.5-0.25-0.71-0.88-0.47-1.4l10.24-21.95C491.25,236.55,491.86,236.33,492.36,236.58"/>
<path class="st0" d="M511.26,241.69c0-0.58-0.45-1.04-1.01-1.04l-6.48,0c-0.56,0-1.01,0.47-1.01,1.04c0,0-0.11,25.22,0.05,36.51
	c0,0.76,0.06,1.14,0.73,0.63c2.93-2.27,4.46-3.67,7.82-6.62L511.26,241.69z"/>
<path class="st0" d="M515.61,239.39l5.84-2.9c0.5-0.25,1.11-0.03,1.35,0.49l10.19,21.91c0.24,0.52,0.03,1.14-0.47,1.39l-5.84,2.9
	c-0.5,0.25-1.1,0.03-1.35-0.49l-10.19-21.91C514.89,240.26,515.11,239.64,515.61,239.39"/>
<path class="st0" d="M525.75,232.96l4.05-5.23c0.35-0.45,0.98-0.52,1.42-0.16l18.38,15.18c0.44,0.36,0.51,1.02,0.16,1.46l-4.05,5.23
	c-0.35,0.45-0.98,0.52-1.42,0.16l-18.38-15.17C525.47,234.06,525.4,233.41,525.75,232.96"/>
</svg>
