<?xml version="1.0" encoding="utf-8"?>
<!-- Generator: Adobe Illustrator 23.0.6, SVG Export Plug-In . SVG Version: 6.00 Build 0)  -->
<svg version="1.1" id="Layer_1" xmlns="http://www.w3.org/2000/svg" xmlns:xlink="http://www.w3.org/1999/xlink" x="0px" y="0px"
	 viewBox="0 0 1224 792" style="enable-background:new 0 0 1224 792;" xml:space="preserve">
<style type="text/css">
	.st0{fill:#FFFFFF;}
</style>
<path class="st0" d="M661.55,250.01l-21.45-21.46c5.91-7.13,9.16-16.11,9.16-25.38c0-21.94-17.85-39.79-39.79-39.79
	s-39.79,17.85-39.79,39.79c0,21.94,17.85,39.79,39.79,39.79c9.27,0,18.25-3.25,25.38-9.16l21.46,21.45c0.7,0.7,1.66,1.1,2.62,1.1
	c0.99,0,1.96-0.41,2.62-1.1c0.7-0.7,1.08-1.63,1.08-2.62S662.25,250.71,661.55,250.01z M641.79,203.17
	c0,17.84-14.51,32.36-32.34,32.36c-17.83,0-32.34-14.52-32.34-32.36c0-17.83,14.51-32.34,32.34-32.34
	C627.28,170.83,641.79,185.34,641.79,203.17z"/>
</svg>
