<svg xmlns="http://www.w3.org/2000/svg" xmlns:xlink="http://www.w3.org/1999/xlink" width="52" height="51.966" viewBox="0 0 52 51.966">
  <defs>
    <clipPath id="clip-path">
      <rect id="Rectangle_76" data-name="Rectangle 76" width="52" height="51.966" fill="#724ee6"/>
    </clipPath>
  </defs>
  <g id="Group_73" data-name="Group 73" transform="translate(0 0)">
    <g id="Group_72" data-name="Group 72" transform="translate(0 0)" clip-path="url(#clip-path)">
      <path id="Path_1281" data-name="Path 1281" d="M4.14,7.514c-.657,3.061.112,6.159-.506,9.34H0V0H16.821c.059,1.115.119,2.265.192,3.646-3.222.68-6.4-.054-9.539.5C8.513,5.933,46.059,43.4,47.857,44.454c.666-3.06-.109-6.159.516-9.34H52V51.966H35.185c-.06-1.11-.121-2.258-.2-3.642,3.22-.681,6.4.05,9.538-.5C43.461,46,5.923,8.549,4.14,7.514" transform="translate(0 0)" fill="#724ee6"/>
      <path id="Path_1282" data-name="Path 1282" d="M55.34,16.893h-3.6c-.648-3.079.056-6.1-.481-9.287-1.989,1.15-3.2,2.876-4.693,4.273s-2.88,2.87-4.319,4.305C40.774,17.66,39.29,19.13,37.7,20.71l-2.713-3.015L48.252,4.54l-.217-.526-9.5-.147V.026h16.8Z" transform="translate(-3.344 -0.003)" fill="#724ee6"/>
      <path id="Path_1283" data-name="Path 1283" d="M16.869,51.4V55.24H0V38.395H3.815c.045,3.2.088,6.236.137,9.669a33.991,33.991,0,0,0,4.931-4.531c1.477-1.4,2.9-2.858,4.325-4.312,1.472-1.5,2.915-3.036,4.537-4.728l3.212,2.9L7.545,50.725l.205.528,9.119.146" transform="translate(0 -3.297)" fill="#724ee6"/>
    </g>
  </g>
</svg>
