<svg xmlns="http://www.w3.org/2000/svg" xmlns:xlink="http://www.w3.org/1999/xlink" width="52" height="51.983" viewBox="0 0 52 51.983">
  <defs>
    <clipPath id="clip-path">
      <rect id="Rectangle_71" data-name="Rectangle 71" width="52" height="51.983" fill="#43a5e6"/>
    </clipPath>
  </defs>
  <g id="Group_67" data-name="Group 67" transform="translate(0 0)">
    <g id="Group_66" data-name="Group 66" transform="translate(0 0)" clip-path="url(#clip-path)">
      <path id="Path_1271" data-name="Path 1271" d="M26,51.937c-1.366,0-2.739-.084-4.1.02a8.719,8.719,0,0,1-5.276-1.352c-2.775-1.638-5.646-3.117-8.494-4.631a4.075,4.075,0,0,1-1.792-1.8c-1.883-3.632-3.832-7.23-5.7-10.87a5.4,5.4,0,0,1-.6-2.276c-.063-3.473-.056-6.949,0-10.423A4.927,4.927,0,0,1,.558,18.5c1.9-3.691,3.888-7.339,5.8-11.025A3.947,3.947,0,0,1,8.18,5.71C11.495,4.017,14.777,2.263,18.1.6A5.477,5.477,0,0,1,20.394.042q5.588-.084,11.178,0a5.451,5.451,0,0,1,2.293.538c3.325,1.669,6.6,3.44,9.914,5.128a4.223,4.223,0,0,1,1.908,1.931Q48.481,13,51.36,18.312A4.875,4.875,0,0,1,52,20.779c-.037,3.35.024,6.7-.042,10.051a5.837,5.837,0,0,1-.6,2.461c-1.86,3.643-3.819,7.235-5.712,10.861a4.114,4.114,0,0,1-1.778,1.815c-3.339,1.779-6.642,3.626-10,5.377a5.591,5.591,0,0,1-2.284.567c-1.859.08-3.725.026-5.588.026m9.068-27.747c-.73-3.641-1.383-6.906-2.048-10.169a2.278,2.278,0,0,0-.3-.676c-1.776-2.98-3.531-5.973-5.351-8.925-.763-1.237-1.591-1.2-2.383.063-1.116,1.786-2.1,3.66-3.266,5.408a18.632,18.632,0,0,0-3.131,7.839c-.294,2.065-.779,4.1-1.236,6.443,5.943.036,11.674.013,17.72.018m-17.62,3.865c.433,1.908.834,3.827,1.312,5.727a19.669,19.669,0,0,0,1.232,4.055c1.5,2.989,3.186,5.886,4.821,8.808.318.568.5,1.322,1.373,1.351.89.029,1.083-.716,1.4-1.289,1.27-2.273,2.4-4.632,3.8-6.819C33.716,36.26,33.9,32.062,35,28.107c-1.564-.438-15.61-.482-17.554-.051m-13.7-.133a6.993,6.993,0,0,0,.695,5c1.594,2.792,3.02,5.679,4.573,8.5a4.281,4.281,0,0,0,1.413,1.634c2.941,1.713,5.938,3.327,8.919,4.972a1.648,1.648,0,0,0,1.993.042c-.238-.5-.454-1-.711-1.477-1.227-2.29-2.5-4.556-3.682-6.869a15.6,15.6,0,0,1-1.193-3.087c-.488-1.85-.827-3.738-1.258-5.6-.246-1.063-.553-2.113-.857-3.263-3,0-5.842,0-8.685.007a10.4,10.4,0,0,0-1.2.15m9.892-3.849c.319-1.484.631-2.8.884-4.133,1.384-7.283,1.379-7.284,5.211-13.668.318-.53.646-1.056.938-1.6a6.24,6.24,0,0,0,.312-.843c-.853-.564-1.473,0-2.1.325-2.688,1.4-5.347,2.853-8.052,4.219a4.191,4.191,0,0,0-1.882,1.943c-1.515,2.9-3.022,5.815-4.629,8.669A7.144,7.144,0,0,0,3.8,24.073ZM31.064,48.1l.294.345a7.942,7.942,0,0,0,1.337-.45c2.94-1.6,5.877-3.21,8.783-4.871a3.486,3.486,0,0,0,1.279-1.278q2.671-4.894,5.224-9.851a5.586,5.586,0,0,0,.144-4.2c-3.194-.045-6.271-.043-9.389-.009-.458,1.975-.929,3.706-1.252,5.464a24.338,24.338,0,0,1-3.318,8.986c-.937,1.455-1.694,3.027-2.515,4.555-.226.42-.393.871-.588,1.308M48.137,24.073a6.719,6.719,0,0,0-.308-4.6C46.135,16.3,44.49,13.1,42.763,9.948a3.728,3.728,0,0,0-1.4-1.4c-2.879-1.587-5.8-3.1-8.711-4.62a7.734,7.734,0,0,0-1.462-.361c.415.8.643,1.287.918,1.752,1.133,1.923,2.319,3.817,3.405,5.766a11.745,11.745,0,0,1,1.1,2.728c.374,1.435.576,2.913.88,4.367.415,1.978.857,3.95,1.282,5.895Z" transform="translate(0 0)" fill="#43a5e6"/>
    </g>
  </g>
</svg>
