<svg xmlns="http://www.w3.org/2000/svg" xmlns:xlink="http://www.w3.org/1999/xlink" width="66.275" height="52" viewBox="0 0 66.275 52">
  <defs>
    <clipPath id="clip-path">
      <rect id="Rectangle_74" data-name="Rectangle 74" width="66.275" height="52" fill="#5b71e3"/>
    </clipPath>
  </defs>
  <g id="Group_69" data-name="Group 69" transform="translate(0 0)">
    <g id="Group_68" data-name="Group 68" transform="translate(0 0)" clip-path="url(#clip-path)">
      <path id="Path_1272" data-name="Path 1272" d="M46,44.057H33.545c-.176-1.258-.356-2.444-.5-3.633a27.944,27.944,0,0,1-.366-3.614,2.819,2.819,0,0,0-1.442-2.555c-1.243-.844-2.4-1.808-3.631-2.674a9.1,9.1,0,0,1-2.481-2.619c-1.018-1.611-2.5-3.059-3.04-4.8s-.054-3.785-.226-5.676A13.531,13.531,0,0,1,24.07,10a12.328,12.328,0,0,1,5.69-5.488C31.5,3.757,33.1,2.677,34.8,1.82a9.553,9.553,0,0,1,1.962-.527.717.717,0,0,1,.173,0c2.314.015,4.734-.391,6.912.16S47.9,3.642,50.006,4.566A12.375,12.375,0,0,1,55.583,9.93a13.208,13.208,0,0,1,2.248,8.461c-.173,1.892.346,3.94-.2,5.68-.567,1.8-2.077,3.294-3.119,4.957a9.088,9.088,0,0,1-2.5,2.6c-1.319.939-2.588,1.948-3.908,2.886a2.3,2.3,0,0,0-1.073,1.844c-.171,2.185-.444,4.363-.7,6.54A7.562,7.562,0,0,1,46,44.057m-2.121-10.8c1.721-1.265,3.38-2.626,5.178-3.772,2.308-1.472,3.428-3.85,4.886-5.975a2.527,2.527,0,0,0,.239-1.327,52.054,52.054,0,0,0-.037-6.407c-.314-2.77-2.074-4.9-3.778-6.991-.067-.083-.2-.112-.3-.169-2.024-1.114-4.04-2.242-6.076-3.331a3.513,3.513,0,0,0-1.459-.473c-1.79-.057-3.584-.065-5.374,0a3.969,3.969,0,0,0-1.618.536c-1.938,1.029-3.856,2.1-5.771,3.167-1.43.8-4.271,5.58-4.287,7.233-.02,2.137-.049,4.276.022,6.411a4.309,4.309,0,0,0,.576,1.926,17.375,17.375,0,0,0,6.06,6.51c.938.56,1.758,1.316,2.673,1.921a2.5,2.5,0,0,1,1.176,2.141c.138,1.99.461,3.967.724,6.08a59.066,59.066,0,0,0,6.263-.079c.307-2.509.593-4.849.905-7.4" transform="translate(-6.675 -0.355)" fill="#5b71e3"/>
      <path id="Path_1273" data-name="Path 1273" d="M51.6,69.862v3.433H38.111v-3.37c1.27-.439,11.643-.509,13.489-.062" transform="translate(-11.667 -21.295)" fill="#5b71e3"/>
      <rect id="Rectangle_72" data-name="Rectangle 72" width="9.318" height="3.763" transform="translate(0 16.306)" fill="#5b71e3"/>
      <rect id="Rectangle_73" data-name="Rectangle 73" width="9.319" height="3.766" transform="translate(56.956 16.304)" fill="#5b71e3"/>
      <path id="Path_1274" data-name="Path 1274" d="M14.013,8.267,6.641,2.807,8.751,0l7.375,5.543L14.013,8.267" transform="translate(-2.033 0)" fill="#5b71e3"/>
      <path id="Path_1275" data-name="Path 1275" d="M77.408,8.287,75.294,5.565l7.3-5.494,2.209,2.7c-2.415,1.913-4.849,3.6-7.39,5.514" transform="translate(-23.05 -0.022)" fill="#5b71e3"/>
      <path id="Path_1276" data-name="Path 1276" d="M8.766,49.167,6.65,46.351l7.322-5.428L16.16,43.6,8.766,49.167" transform="translate(-2.036 -12.528)" fill="#5b71e3"/>
      <path id="Path_1277" data-name="Path 1277" d="M75.3,43.619l2.085-2.748L84.747,46.3,82.693,49.15,75.3,43.619" transform="translate(-23.052 -12.512)" fill="#5b71e3"/>
      <path id="Path_1278" data-name="Path 1278" d="M42.573,25.468l2.219,2.421L47.1,25.433h3.052l3.587,3.893-2.435,2.6L48.839,29.65c-1.418.633-1.945,2.379-3.867,2.395-1.944.017-2.533-1.614-3.962-2.436l-2.448,2.338L36.117,29.38l3.494-3.911Z" transform="translate(-11.057 -7.786)" fill="#5b71e3"/>
    </g>
  </g>
</svg>
